<svg height="512pt" viewBox="0 0 512 512" width="512pt" xmlns="http://www.w3.org/2000/svg" xmlns:xlink="http://www.w3.org/1999/xlink"><linearGradient id="a" gradientUnits="userSpaceOnUse" x1="0" x2="512" y1="256" y2="256"><stop offset="0" stop-color="#80d8ff"/><stop offset="1" stop-color="#ea80fc"/></linearGradient><path d="m452 0h-392c-33.085938 0-60 26.914062-60 60v392c0 33.085938 26.914062 60 60 60h392c33.085938 0 60-26.914062 60-60v-392c0-33.085938-26.914062-60-60-60zm20 452c0 11.027344-8.972656 20-20 20h-136.667969v-191.332031h58.667969c11.046875 0 20-8.953125 20-20s-8.953125-20-20-20h-58.667969v-24c0-32.351563 26.320313-58.667969 58.667969-58.667969 11.046875 0 20-8.953125 20-20s-8.953125-20-20-20c-54.40625 0-98.667969 44.261719-98.667969 98.667969v24h-39c-11.046875 0-20 8.953125-20 20s8.953125 20 20 20h39v191.332031h-215.332031c-11.027344 0-20-8.972656-20-20v-392c0-11.027344 8.972656-20 20-20h392c11.027344 0 20 8.972656 20 20zm0 0" fill="url(#a)"/></svg>